<svg id="a" xmlns="http://www.w3.org/2000/svg" viewBox="100 0 600 601" fill="#e5e5e5" preserveAspectRatio="xMidYMid meet"><path d="M403.06,454.38c47.58-77.01,138.09-59.78,174.02-6.81-2.72-.37-5.15-.78-7.59-1.02-12.63-1.26-24.32,1.9-35.21,8.05-8.21,4.63-16.09,9.84-24.27,14.5-29.44,16.78-58.65,15.04-87.18-2.06-7.31-4.38-12.29-1.83-15.18,2.82-2.37,3.82-4.42,8.58-4.51,12.96-.43,20.08-.13,40.18-.08,60.27,.01,5.93-3.4,9.25-7.9,7.26-1.68-.74-3.03-2.86-3.86-4.66-.63-1.35-.22-3.19-.22-4.82,.03-37.67,.06-75.34,.13-113.01,.01-6.67-2.13-12.47-6.97-17.08-2.33-2.22-4.97-3.33-8.42-1.77-28.4,12.82-56.17,9.73-82.82-4.7-31.8-17.22-52.43-44.45-67.05-78.15,8.07,4.57,15.75,7.38,24.04,7.27,7.51-.1,15.06-.51,22.5-1.43,44.99-5.6,80.26,10.56,106.43,47.2,4.13,5.78,7.76,11.92,12.02,18.5v-63.48c-7.24,1.52-14.4,2.95-21.53,4.53-18.11,4.02-32.45-1.97-43.67-16.33-8.19-10.49-14.96-21.68-15.32-35.46-.14-5.2,.76-10.42,1.19-15.72-2.99,.49-6.26,1.2-9.57,1.54-17.6,1.83-32.18-5.12-44.47-16.77-7.88-7.46-14.95-15.9-21.57-24.52-7.3-9.5-8.39-20.59-3.42-31.39,9.39-20.39,23.82-35.85,46.27-41.73,5.68-1.49,11.95-.72,17.95-.94,1.27-.05,2.55,.13,3.45,.18-2.19-6.01-4.92-11.74-6.34-17.79-2.39-10.13-1.65-20.46,2.61-29.92,3.9-8.66,8.47-17.19,13.95-24.92,7.3-10.29,18.14-15.2,30.7-16.15,17.9-1.36,35.78-1.19,53.11,3.89,16.08,4.71,27.22,14.93,31.08,31.86,.49,2.13,.5,4.38,.78,7.04,.96-.56,1.84-.92,2.52-1.51,10.69-9.17,23.35-12.4,37.03-11.67,14.84,.79,29.05,4.61,42.61,10.68,13.71,6.14,25.54,17.18,22.18,38.79-2.77,17.77-9.08,33.87-22.4,46.46-3.57,3.38-7.97,5.88-12.18,8.93,17.71,6.06,29.8,18.19,37.66,34.68,5.5,11.53,5.66,23.31-1.39,34.21-5.9,9.13-12.33,17.99-19.24,26.38-11.74,14.24-27.62,16.95-44.93,14.55-12.88-1.79-23.7-7.56-32.58-18-4.24,17.04-15.41,26.93-30.14,33.59-1.05,.48-2.27,2.06-2.28,3.14-.16,12.82-.1,25.64,.62,38.85,.81-1.4,1.67-2.78,2.44-4.21,6.11-11.42,13.4-21.9,23.92-29.77,13.88-10.38,29.89-12.81,46.29-10.24,18.93,2.97,36.67,1.43,53.43-8.19,.32-.18,.77-.12,1.64-.24-4,13.03-9.59,24.93-17.32,35.77-12.76,17.91-28.67,31.71-50.52,37.22-16.35,4.13-31.85,2.02-46.13-7.36-6.87-4.51-12.38-2-13.81,6.27-.33,1.88-.49,3.82-.49,5.73-.04,19.34-.02,38.68-.02,58.66Zm-55.39-305.43c.93,1.29,1.88,2.58,2.79,3.88,7.48,10.66,15.48,20.86,25.98,28.78,.98,.74,2.3,1.04,4.14,1.84-.3-1.53-.29-1.84-.42-2.05-.62-1-1.29-1.97-1.92-2.96-7.22-11.35-13.48-23.17-16.67-36.33-1.41-5.79-2.35-11.73,1.23-18.37,7.58,19.39,11.21,39.6,23.59,56.01-.77-7.91-2.2-15.62-3.27-23.38-1.55-11.2-.16-19.48,3.48-22.8,.34,5.43,.44,10.9,1.07,16.32,1.03,8.76,2.35,17.49,3.72,26.21,.16,1.01,1.43,1.85,2.19,2.77,.79-.82,1.94-1.51,2.31-2.49,.93-2.47,1.36-5.12,2.23-7.61,4.87-13.87,10.02-27.65,14.67-41.6,7.22-21.66-2.72-40.22-25.09-44.33-13.65-2.5-27.84-2.49-41.81-2.77-11.87-.24-21.95,4.46-28.55,14.75-3.56,5.55-6.98,11.33-9.4,17.43-8.14,20.49-3.1,40.21,15.41,52.09,14.64,9.4,30.99,16.17,46.68,23.9,1.11,.55,3.09-.67,5.22-1.21-13.32-10.88-23.74-22.07-27.58-38.08Zm20.14,49.47c-.39-.18-.78-.37-1.17-.55-17.96-8.41-35.81-17.05-53.91-25.15-10.46-4.68-21.66-6.26-32.78-2.82-16.92,5.25-27.99,17.42-35.96,32.66-4.39,8.39-3.61,16.8,2.39,24,6.77,8.13,13.63,16.39,21.58,23.29,18.07,15.66,37.61,16.2,55.09,2.58,15.34-11.96,30.67-23.92,45.94-35.96,.85-.67,1.13-2.06,1.67-3.11-1.2-.41-2.58-1.42-3.57-1.13-11.55,3.37-23.07,6.87-34.55,10.48-4.85,1.52-9.59,3.38-14.38,5.09-.21-.4-.42-.81-.63-1.21,5.05-8.32,13.63-11.61,22.44-14.15,8.84-2.55,17.88-4.39,26.84-6.54l-.04-.85c-14.05-.63-28.09-1.26-42.14-1.89,.02-.43,.03-.87,.05-1.3,13.86-5.78,28.28-3.42,43.14-3.42Zm91.89-25.19c.1,.4,.21,.8,.31,1.2-1.65,.9-3.26,1.89-4.96,2.67-10.95,5.05-21.96,9.99-32.86,15.15-1.13,.54-1.69,2.28-2.51,3.47,1.25,.73,2.49,2.07,3.76,2.09,15.79,.33,31.59,.52,47.39,.63,11.81,.08,21.9-4.28,30.09-12.71,10.78-11.09,16.37-24.71,18.01-39.9,1.47-13.59-2.78-20.64-15.14-26.24-3.34-1.52-6.8-2.8-10.28-4-11.37-3.93-23.06-6.3-35.13-5.52-16.23,1.04-27.23,10.45-35.16,23.71-8.38,14.02-12.8,29.66-17.07,45.29-.22,.79,.06,1.72,.11,2.58l1.07,.42c8.83-13.65,16.86-28.02,31.63-36.31-9.14,12.86-19.47,24.85-27.2,38.67,17.55-14.93,33.75-31.7,57.88-35.96-4.66,4.27-9.79,7.85-14.89,11.47-11.66,8.27-23.35,16.51-34.93,24.88-1.6,1.16-2.7,3.02-4.03,4.56,.37,.39,.75,.78,1.12,1.17,13.66-7.36,27.29-14.77,42.79-17.31Zm-79.04,50.87c-.2-.43-.41-.85-.61-1.28-1.4,.36-3.1,.34-4.15,1.15-13.71,10.68-27.73,21.02-40.83,32.41-9.9,8.6-15.53,20.06-12.82,33.57,2.86,14.2,10.29,26.15,22.55,34.14,4.16,2.71,10,4.36,14.94,4.09,16.46-.9,32.32-5.07,46.7-13.31,18.96-10.85,23.57-27.6,13.72-46.97-6.4-12.58-12.66-25.24-19.07-37.82-.57-1.12-1.78-1.92-2.7-2.86-.52,.23-1.03,.45-1.55,.68v36.88c-6.15-11.91-4.88-24.47-4.67-37.04-9.09,17.27-10.98,36.77-17.67,55.34-2.89-5.54-3.57-11.53-2.39-17.92,2.21-11.97,6.66-23.14,12.13-33.96,.79-1.55,1.26-3.27,1.88-4.91-.53-.33-1.06-.66-1.59-.98-8.25,10.38-16.49,20.76-25.5,32.11,2.79-14.97,12.97-23.66,21.64-33.33Zm30.27-1.14l-1.12,.89c.33,1.07,.5,2.21,1.01,3.18,9.27,17.76,18.5,35.54,27.92,53.22,3.97,7.45,9.71,13.31,17.32,17.2,12.62,6.46,33.48,7.81,44.61-2.79,9.49-9.04,17.47-19.27,23.13-31.06,1.67-3.48,2.36-8.22,1.56-11.97-4.4-20.69-17.5-33.8-37.72-38.94-21.2-5.39-43.04-4.66-64.73-4.45-1.26,.01-2.5,1.72-3.75,2.63,7.07,2.57,13.57,3.71,19.91,5.46,6.22,1.72,12.45,3.66,18.36,6.23,5.87,2.55,11.35,6.01,17,9.07l-.69,1.39c-18.09-7.08-36.33-13.59-55.71-16.15,5.43,2.88,11.05,5.27,16.51,8,12.3,6.14,24.17,12.98,33.99,22.82,3.42,3.43,6.08,7.41,7.13,13.76-7.39-5.76-13.69-10.84-20.17-15.66-6.51-4.83-13.02-9.7-19.88-13.99-6.66-4.17-13.76-7.63-20.66-11.4l-.72,1.2c13.64,10.93,27.13,21.99,35.04,38.02-.35,.34-.7,.68-1.05,1.02-12.43-12.55-24.86-25.11-37.28-37.66Zm-34.03,174.12c.03-.14,.13-.33,.08-.43-17.82-32.63-43.78-53.41-82.22-54.55-15.72-.47-31.51,1.07-47.26,1.73-.16,0-.31,.41-.55,.75,11.48,18.49,25.4,34.74,44.07,46.4,27.49,17.16,56.05,21.08,85.88,6.1Zm41.04,56.12c6.03,3.01,12,6.15,18.1,9.02,14.5,6.82,29.64,9.58,45.54,6.52,12.38-2.38,22.89-8.88,33.55-15.22,8.82-5.25,18.1-9.73,27.31-14.27,2.87-1.42,6.19-1.94,9.57-2.95-38.08-33.96-102.35-33.21-134.07,16.91Zm96.78-117.95l-1.04-1.22c-12.36,3.85-24.71,2.08-37.15,.91-7.24-.68-14.84-.77-21.92,.63-19.97,3.95-31.45,18.13-40.27,35.5,4.07,2.41,7.87,4.93,11.9,7,10.88,5.6,22.31,6.94,34.26,4.13,16.82-3.95,29.81-13.79,40.47-26.81,5.13-6.27,9.2-13.4,13.75-20.14Zm-121.12-119.03c9.05-.03,15.05-4.43,16.17-11,1.03-6.07-3.03-12.11-9.73-14.47-8.39-2.95-18.16,1.47-20.58,9.32-2.02,6.55,2.62,13.56,10.52,15.7,1.54,.42,3.19,.4,3.62,.45Z"/><path d="M409.65,119.37c-3.78-13.16-12.31-19.51-24.08-22.08-13.66-2.98-27.52-3.09-41.39-2.54-8.78,.35-15.12,5.27-20.27,11.92-6.74,8.72-11.74,18.29-13.84,29.9-1.85-7.41-.85-14.2,1.86-20.24,3.34-7.43,7.75-14.46,12.33-21.24,3.35-4.95,8.86-7.49,14.71-8.14,16.06-1.77,32.15-1.58,47.85,2.62,13.82,3.7,22.89,14.84,23.21,27.34,.01,.43-.13,.85-.38,2.45Z"/><path d="M298.05,175.07c-9.4,.45-17.88,3.29-25.09,9.41-7.19,6.11-13.36,13.15-15.71,22.44-.89,3.52-.86,8.53,1.03,11.3,10.41,15.27,23.33,27.85,41.91,32.62,5.23,1.34,10.91,.96,15.7,1.32-5.66,3.66-12.93,4.63-20.51,3.39-13.28-2.17-23.44-9.85-32.51-19.17-4.1-4.21-7.89-8.76-11.58-13.35-4.61-5.72-4.86-12.07-2.07-18.71,7.91-18.84,29.83-32.11,48.84-29.26Z"/><path d="M483.19,186.82c11.21-9.43,18.88-21.03,22.64-35.14,2.88-10.84-.13-17.94-9.73-23.46-12.62-7.27-26.24-11.07-40.81-11.31-2.33-.04-4.66,.35-7.12-.15,3.26-.53,6.51-1.43,9.79-1.52,14.8-.38,28.97,2.55,42.26,9.13,10.87,5.38,14.26,12.77,10.59,24.31-4.75,14.95-13.25,27.51-25.85,37.1-.54,.41-1.18,.7-1.77,1.05Z"/><path d="M326.72,280.61c4.42,10.78,11.03,19.87,19.72,27.44,6.1,5.31,13.05,7.99,21.25,5.64,9.89-2.83,19.93-5.24,29.6-8.67,9.49-3.36,17.49-9.08,21.93-18.73-.63,10.07-6.13,17.11-14.15,22.22-12.8,8.15-27.27,11.64-42.05,13.84-7.45,1.11-13.9-1.75-19.35-6.84-10.15-9.48-17.06-20.54-16.95-34.89Z"/><path d="M450.29,287.84c5.09,1.03,9.34,2.07,13.65,2.72,21.07,3.15,34.49-7.53,45.12-24.27,5.94-9.34,7.42-18.55,2.43-28.3-2.51-4.91-6.2-9.21-9.11-13.43,.3,.17,1.32,.57,2.16,1.2,7.9,5.99,13.65,13.69,15.6,23.38,.84,4.18,.53,9.65-1.57,13.14-5.36,8.9-11.46,17.49-18.29,25.31-8.42,9.64-20.18,9.27-31.66,7.82-6.41-.81-12.45-3.04-18.32-7.57Z"/><path d="M356.26,384.97c-18.55-23.67-43.57-32.25-72.3-35.16,29.62-3.5,64.12,10.72,79.16,38.97-21.1,.46-41.56,0-57.65-16.39,15.06,10.57,32.49,11.6,50.78,12.58Z"/><path d="M366.32,394.05c-15.78,14.89-65.62,.59-89.2-25.32,26.48,19.86,55.23,31.66,89.2,25.32Z"/><path d="M520.9,426.55c-28.2-4.84-54.43-4.15-78.44,14.27,17.77,1.98,34.53,5.4,51.03-1.99-5.76,4.9-12.58,7.41-19.78,7.59-9.54,.23-19.1-.6-28.65-1.07-3.81-.19-7.62-.61-11.31-.92,10.77-20.83,61.58-31.85,87.15-17.87Z"/><path d="M516.47,441.36c-15.1,14.81-32.73,23.44-54.43,21.09-11.4-1.23-22.13-4.61-32.05-10.19l.42-1.93c1.66,.21,3.35,.25,4.96,.64,8.41,2.05,16.7,4.68,25.2,6.18,14.31,2.52,27.8-.89,40.57-7.37,5.19-2.64,10.22-5.6,15.32-8.42Z"/><path d="M425.96,362.76c16.62-21.98,38.35-25.63,62.69-19.75-8.45,.84-17.34,1.1-25.97,2.74-8.7,1.65-16.62,5.71-24.38,12.06,5.91-.59,10.89-1,15.85-1.59,5.1-.61,10.17-1.4,15-2.08-5.69,7.15-29.44,8.97-43.19,8.63Z"/><path d="M424.6,369.95c1.79-3.77,4.61-1.5,6.8-.93,14.11,3.73,28,3.6,41.52-2.23,4.41-1.9,8.49-4.54,12.64-6.8-14.61,18.01-43.98,20.66-60.95,9.95Z"/></svg>