<svg width="1200" height="720" viewBox="0 0 1200 720" fill="none" xmlns="http://www.w3.org/2000/svg">
  <rect width="1200" height="720" fill="#FAFAFA"/>
  <rect x="116" y="116" width="968" height="488" rx="28" fill="#FFFFFF" stroke="#E5E5E5" stroke-width="4"/>
  <rect x="178" y="178" width="412" height="364" rx="22" fill="#171717"/>
  <rect x="230" y="230" width="308" height="18" rx="9" fill="#525252"/>
  <rect x="230" y="264" width="212" height="14" rx="7" fill="#737373"/>
  <circle cx="338" cy="414" r="82" fill="#262626" stroke="#404040" stroke-width="4"/>
  <circle cx="338" cy="414" r="30" fill="#D4D4D4"/>
  <rect x="652" y="178" width="370" height="88" rx="18" fill="#F5F5F5"/>
  <rect x="684" y="214" width="224" height="14" rx="7" fill="#D4D4D4"/>
  <rect x="652" y="292" width="370" height="250" rx="18" fill="#F5F5F5"/>
  <rect x="684" y="334" width="244" height="14" rx="7" fill="#D4D4D4"/>
  <rect x="684" y="366" width="186" height="14" rx="7" fill="#D4D4D4"/>
  <rect x="684" y="456" width="120" height="36" rx="18" fill="#171717"/>
</svg>
