<svg width="1200" height="720" viewBox="0 0 1200 720" fill="none" xmlns="http://www.w3.org/2000/svg">
  <rect width="1200" height="720" fill="#FAFAFA"/>
  <rect x="150" y="128" width="900" height="464" rx="24" fill="#FFFFFF" stroke="#E5E5E5" stroke-width="4"/>
  <rect x="212" y="188" width="320" height="344" rx="20" fill="#171717"/>
  <rect x="250" y="242" width="180" height="14" rx="7" fill="#737373"/>
  <rect x="250" y="272" width="230" height="14" rx="7" fill="#525252"/>
  <rect x="250" y="354" width="244" height="110" rx="16" fill="#262626"/>
  <rect x="574" y="188" width="416" height="70" rx="16" fill="#F5F5F5"/>
  <rect x="606" y="216" width="220" height="14" rx="7" fill="#D4D4D4"/>
  <rect x="574" y="276" width="416" height="70" rx="16" fill="#F5F5F5"/>
  <rect x="606" y="304" width="180" height="14" rx="7" fill="#D4D4D4"/>
  <rect x="574" y="364" width="416" height="168" rx="16" fill="#F5F5F5"/>
  <rect x="606" y="402" width="286" height="14" rx="7" fill="#D4D4D4"/>
  <rect x="606" y="432" width="252" height="14" rx="7" fill="#D4D4D4"/>
</svg>
